#N canvas -8 -8 1554 786 10;
#X obj 173 280 list prepend send;
#X obj 176 307 list trim;
#X msg 261 307 connect localhost 12001;
#X obj 178 345 netsend -u -b;
#X obj 172 254 oscformat /float;
#X obj 261 119 adc~;
#X obj 261 148 env~;
#X floatatom 261 196 5 0 0 0 - - -, f 5;
#X obj 261 172 spigot;
#X msg 305 149 1;
#X obj 313 118 loadbang;
#X msg 492 105 0;
#X msg 524 124 disconnect;
#X text 504 66 test box;
#X text 228 95 measurement of mic;
#X text 212 381 Sending data;
#X connect 0 0 1 0;
#X connect 1 0 3 0;
#X connect 2 0 3 0;
#X connect 4 0 0 0;
#X connect 5 0 6 0;
#X connect 6 0 8 0;
#X connect 7 0 4 0;
#X connect 8 0 7 0;
#X connect 9 0 8 1;
#X connect 10 0 9 0;
#X connect 11 0 8 1;
#X connect 12 0 3 0;
